<svg width="63" height="56" viewBox="0 0 63 56" fill="none" xmlns="http://www.w3.org/2000/svg">
<path d="M38.3214 6.72729C38.3214 7.86042 38.2316 8.80979 38.3622 9.7265C38.4173 10.1165 38.8726 10.535 39.2463 10.7698C41.0572 11.9192 43.0234 12.838 44.7118 14.1569C50.1753 18.4281 53.4134 24.0508 53.591 31.3559C53.64 33.4282 52.8764 33.9488 51.1369 33.1383C46.1083 30.8067 40.6999 32.1746 37.8151 36.507C34.6688 41.2355 35.1119 47.532 38.8828 51.6603C43.6971 56.9319 51.6228 57.0911 57.0884 52.0523C60.3612 49.0347 61.9169 45.1392 62.3049 40.7068C63.6054 25.8618 56.1594 13.624 42.6048 8.24834C41.2634 7.7175 39.8894 7.28058 38.3214 6.72729Z" fill="#02618F" fill-opacity="0.2"/>
<path d="M11.4194 6.72729C11.4194 7.86042 11.3296 8.80979 11.4603 9.7265C11.5154 10.1165 11.9707 10.535 12.3443 10.7698C14.1553 11.9192 16.1214 12.838 17.8098 14.1569C23.2733 18.4281 26.5114 24.0508 26.6891 31.3559C26.7381 33.4282 25.9745 33.9488 24.235 33.1383C19.2063 30.8067 13.798 32.1746 10.9131 36.507C7.76689 41.2355 8.20993 47.532 11.9809 51.6603C16.7951 56.9319 24.7209 57.0911 30.1864 52.0523C33.4592 49.0347 35.015 45.1392 35.4029 40.7068C36.7034 25.8618 29.2575 13.624 15.7028 8.24834C14.3615 7.7175 12.9874 7.28058 11.4194 6.72729Z" fill="#02618F" fill-opacity="0.2"/>
</svg>
