<svg width="53" height="47" viewBox="0 0 53 47" fill="none" xmlns="http://www.w3.org/2000/svg">
<path d="M20.9352 41.371C20.9352 40.4229 21.0103 39.6285 20.901 38.8615C20.8549 38.5352 20.4739 38.185 20.1613 37.9885C18.646 37.0267 17.0009 36.258 15.5881 35.1544C11.0166 31.5806 8.30717 26.8758 8.15855 20.7634C8.11755 19.0294 8.75646 18.5938 10.212 19.272C14.4196 21.2229 18.945 20.0784 21.3588 16.4533C23.9914 12.4968 23.6207 7.22828 20.4654 3.77403C16.4371 -0.63689 9.80538 -0.77014 5.23217 3.44603C2.49372 5.97094 1.19196 9.23044 0.86738 12.9392C-0.220829 25.3605 6.00946 35.6003 17.3511 40.0983C18.4735 40.5425 19.6232 40.9081 20.9352 41.371Z" fill="#02618F" fill-opacity="0.2"/>
<path d="M43.445 41.371C43.445 40.4229 43.5201 39.6285 43.4108 38.8615C43.3647 38.5352 42.9837 38.185 42.6711 37.9885C41.1558 37.0267 39.5107 36.258 38.0979 35.1544C33.5264 31.5806 30.817 26.8758 30.6683 20.7634C30.6273 19.0294 31.2663 18.5938 32.7218 19.272C36.9294 21.2229 41.4548 20.0784 43.8686 16.4533C46.5012 12.4968 46.1305 7.22828 42.9752 3.77403C38.9469 -0.63689 32.3152 -0.77014 27.742 3.44603C25.0035 5.97094 23.7018 9.23044 23.3772 12.9392C22.289 25.3605 28.5193 35.6003 39.8609 40.0983C40.9833 40.5425 42.133 40.9081 43.445 41.371Z" fill="#02618F" fill-opacity="0.2"/>
</svg>
